<?xml version="1.0" encoding="utf-8"?>
<!-- Generator: Adobe Illustrator 27.5.0, SVG Export Plug-In . SVG Version: 6.00 Build 0)  -->
<svg version="1.1" id="Layer_1" xmlns="http://www.w3.org/2000/svg" xmlns:xlink="http://www.w3.org/1999/xlink" x="0px" y="0px"
	 viewBox="0 0 1000 125" style="enable-background:new 0 0 1000 125;" xml:space="preserve">
<style type="text/css">
	.st0{fill:#008539;}
	.st1{fill-rule:evenodd;clip-rule:evenodd;fill:#008539;}
</style>
<path class="st0" d="M351.6,9.8h9.2v23.9c0,7.8,3,9.8,8.9,9.8s8.9-2,8.9-9.8V9.8h9.1V35c0,10.5-6,16-18,16s-18.1-5.5-18.1-16V9.8
	L351.6,9.8z"/>
<path class="st0" d="M425.5,31.4V50h-9V32.8c0-4.8-2.1-6.8-5.7-6.8c-4.8,0-7.4,3-7.4,10.2V50h-9V19.7h9v5.9
	c1.9-4.1,5.4-6.9,10.9-6.9C422.2,18.8,425.5,23.5,425.5,31.4"/>
<path class="st0" d="M431.8,9.8h9.7v6h-9.7V9.8z M432.2,19.7h9V50h-9V19.7L432.2,19.7z"/>
<polygon class="st0" points="479,19.7 468.4,50 455.9,50 445.3,19.7 454.5,19.7 462.5,43 470.4,19.7 "/>
<path class="st0" d="M503.5,40.8h8.6c-0.8,4.8-4.7,10.1-15.6,10.1c-11.8,0-16.3-7.6-16.3-16.1s5.1-16,16.3-16
	c11.2,0,15.7,7.4,15.7,16c0,0.9,0,1.8-0.1,2.4h-23c0.5,5.7,3.4,7.6,7.7,7.6C500.6,44.8,502.7,43.1,503.5,40.8 M489.1,31.7h14.6
	c-0.3-4.6-2.5-6.9-7-6.9S489.8,26.6,489.1,31.7"/>
<path class="st0" d="M537.4,19.3V28h-3c-6,0-8,3.3-8,10.1V50h-9V19.7h8.7v6.5c1.5-4.3,4.2-7,9.2-7L537.4,19.3L537.4,19.3z"/>
<path class="st0" d="M547.9,40.1c0.2,2.9,2.4,5.2,7,5.2c4.1,0,5.4-1.4,5.4-3.5c0-1.8-0.9-3.1-4.2-3.6l-6.8-0.8
	c-5.7-0.7-8.8-3.7-8.8-8.8c0-6.7,5.7-9.9,13.7-9.9s13.7,3.2,14.2,9.9h-8.3c-0.3-2.5-2.2-4.2-5.9-4.2s-5.4,1.5-5.4,3.4
	c0,1.5,0.8,2.7,3.8,3.1l6.3,0.7c7.2,0.9,9.9,4,9.9,9.4c0,5.9-3.7,10-14.2,10c-10.4,0-14.8-5.1-15-10.8L547.9,40.1L547.9,40.1z"/>
<path class="st0" d="M574.1,9.8h9.7v6h-9.7V9.8z M574.5,19.7h9V50h-9V19.7L574.5,19.7z"/>
<path class="st0" d="M593.1,39.1V26.5h-5.5v-4.3l6.2-2.5l3.7-7.1h4.5v7.2h8.7v6.8H602v16.3h7.9V50h-5.7
	C595.6,50,593.1,46.3,593.1,39.1"/>
<path class="st0" d="M614.6,41.9c0-4.8,2.1-8,9.9-9.3l7.1-1.2c2.8-0.5,3.7-1.3,3.7-3c0-2.1-1.2-3.5-5.3-3.5s-6,1.6-6.2,4.7H615
	c0.2-6.5,5.6-10.9,14.8-10.9s13.7,3.9,13.7,10.3v13.1c0,2.8,0.2,5.3,0.5,7.9h-7.8c-0.3-2-0.5-4-0.5-6.5c-1.4,4.2-5,7.3-11.2,7.3
	C618.5,50.8,614.6,47.4,614.6,41.9 M635.4,35.6v-1.3c-1.6,1.1-3.1,1.5-5,1.9l-2.5,0.6c-3.2,0.8-4.5,1.9-4.5,4.2
	c0,2.4,1.8,3.6,4.2,3.6C632.4,44.7,635.4,41.2,635.4,35.6"/>
<path class="st0" d="M652.8,39.1V26.5h-5.5v-4.3l6.2-2.5l3.7-7.1h4.5v7.2h8.7v6.8h-8.7v16.3h7.9V50H664
	C655.4,50,652.8,46.3,652.8,39.1"/>
<path class="st0" d="M719.9,41.8h-18L699,50h-9.2L704,9.8h14L732.1,50h-9.3L719.9,41.8z M717.5,34.7L711,16.1l-6.5,18.6H717.5
	L717.5,34.7z"/>
<path class="st0" d="M766.6,19.7V50h-9v-5.8c-1.9,4.1-5.3,6.8-10.7,6.8c-7.9,0-11.4-4.8-11.4-12.7V19.7h9v17.2
	c0,4.8,2.1,6.7,5.9,6.7c4.5,0,7.3-3.3,7.3-10.2V19.7H766.6L766.6,19.7z"/>
<path class="st0" d="M776.3,39.1V26.5h-5.5v-4.3l6.2-2.5l3.7-7.1h4.5v7.2h8.7v6.8h-8.7v16.3h7.9V50h-5.7
	C778.8,50,776.3,46.3,776.3,39.1"/>
<path class="st0" d="M796.8,34.8c0-8.3,4.7-16,16.7-16s16.7,7.7,16.7,16s-4.7,16.1-16.7,16.1C801.4,50.9,796.8,43.3,796.8,34.8
	 M806.8,8.7l15.3,5.3l-0.7,2.4l-16.3-1.9L806.8,8.7z M813.5,43.9c5.5,0,7.8-2.4,7.8-9.1s-2.3-9.1-7.8-9.1s-7.7,2.4-7.7,9.1
	S808.1,43.9,813.5,43.9"/>
<path class="st0" d="M866.7,31.4V50h-9V32.8c0-4.8-2.1-6.8-5.7-6.8c-4.8,0-7.4,3-7.4,10.2V50h-9V19.7h9v5.9
	c1.9-4.1,5.4-6.9,10.9-6.9C863.4,18.8,866.7,23.5,866.7,31.4"/>
<path class="st0" d="M871.7,34.8c0-8.3,4.7-16,16.7-16s16.7,7.7,16.7,16s-4.7,16.1-16.7,16.1S871.7,43.3,871.7,34.8 M888.4,43.9
	c5.5,0,7.8-2.4,7.8-9.1s-2.3-9.1-7.8-9.1s-7.7,2.4-7.7,9.1S883,43.9,888.4,43.9"/>
<path class="st0" d="M961.8,31.4V50h-9V32.7c0-4.5-1.8-6.7-5.4-6.7c-4.5,0-6.8,3-6.8,10.2V50h-8.8V32.7c0-4.5-1.8-6.7-5.4-6.7
	c-4.5,0-6.8,3-6.8,10.2V50h-9V19.7h9v5.5c1.8-3.9,5.1-6.5,10.3-6.5c5.3,0,8.6,2.5,10,7c1.8-4.2,5.1-7,10.8-7
	C958.3,18.8,961.8,23.5,961.8,31.4"/>
<path class="st0" d="M967.6,41.9c0-4.8,2.1-8,9.9-9.3l7.1-1.2c2.8-0.5,3.7-1.3,3.7-3c0-2.1-1.2-3.5-5.3-3.5s-6,1.6-6.2,4.7H968
	c0.2-6.5,5.6-10.9,14.8-10.9s13.7,3.9,13.7,10.3v13.1c0,2.8,0.2,5.3,0.5,7.9h-7.8c-0.3-2-0.5-4-0.5-6.5c-1.4,4.2-5,7.3-11.2,7.3
	C971.4,50.8,967.6,47.4,967.6,41.9 M988.4,35.6v-1.3c-1.6,1.1-3.1,1.5-5,1.9l-2.5,0.6c-3.2,0.8-4.5,1.9-4.5,4.2
	c0,2.4,1.8,3.6,4.2,3.6C985.3,44.7,988.4,41.2,988.4,35.6"/>
<path class="st0" d="M383.8,71.4v42.3h-9v-4.5c-2.1,3.4-5.6,5.4-10.8,5.4c-9.9,0-13.9-7.4-13.9-16.1s4.1-16,13.9-16
	c5.2,0,8.7,2.1,10.8,5.5V71.4C374.9,71.4,383.8,71.4,383.8,71.4z M374.9,98.6c0-6.2-2.4-9.1-8-9.1s-7.7,2.8-7.7,9.1
	c0,6.3,2.1,9.1,7.7,9.1S374.9,104.8,374.9,98.6"/>
<path class="st0" d="M412.1,104.6h8.6c-0.8,4.8-4.7,10.1-15.6,10.1c-11.8,0-16.3-7.6-16.3-16.1s5.1-16,16.3-16
	c11.2,0,15.7,7.4,15.7,16c0,0.9,0,1.8-0.1,2.4h-23c0.5,5.7,3.4,7.6,7.7,7.6C409.2,108.5,411.2,106.8,412.1,104.6 M397.6,95.5h14.6
	c-0.3-4.6-2.5-6.9-7-6.9S398.4,90.3,397.6,95.5"/>
<path class="st0" d="M475.9,102.8c0,6.8-4.4,10.9-13,10.9h-22V73.5h22.4c8.6,0,12,4.5,12,9.9c0,5.9-3.7,8.6-8.3,9.6
	C472.1,93.8,475.9,96.4,475.9,102.8 M450.1,80.5v9.6h10.2c4,0,5.4-1.9,5.4-4.8c0-3.1-1.3-4.8-5.1-4.8L450.1,80.5L450.1,80.5z
	 M466.3,101.5c0-3.2-1.6-5.3-6-5.3h-10.2v10.5h10.8C465,106.7,466.4,104.5,466.3,101.5"/>
<path class="st0" d="M481.3,105.7c0-4.8,2.1-8,9.9-9.3l7.1-1.2c2.8-0.5,3.7-1.3,3.7-3c0-2.1-1.2-3.5-5.3-3.5c-4.1,0-6,1.6-6.2,4.7
	h-8.8c0.2-6.5,5.6-10.9,14.8-10.9s13.7,3.9,13.7,10.3v13.1c0,2.8,0.2,5.3,0.5,7.9H503c-0.3-2-0.5-4-0.5-6.5c-1.4,4.2-5,7.3-11.2,7.3
	C485.1,114.5,481.3,111.1,481.3,105.7 M502.1,99.4V98c-1.6,1.1-3.1,1.5-5,1.9l-2.5,0.6c-3.2,0.8-4.5,1.9-4.5,4.2
	c0,2.4,1.8,3.6,4.2,3.6C499.1,108.4,502.1,105,502.1,99.4"/>
<path class="st0" d="M538.1,83v8.7h-3c-6,0-8,3.3-8,10.1v11.9h-9V83.5h8.7V90c1.5-4.3,4.2-7,9.2-7H538.1z"/>
<path class="st0" d="M557.2,82.5c10.5,0,15.6,5.8,15.8,13.2h-8.7c-0.3-3.7-2.4-6.2-7-6.2c-4.8,0-7.7,2.3-7.7,9.1s2.8,9.1,7.6,9.1
	s6.9-2.8,7.3-6.4h8.7c-0.2,7.1-5.2,13.4-15.8,13.4c-11.8,0-16.8-7.6-16.8-16.1S545.5,82.5,557.2,82.5"/>
<path class="st0" d="M600.3,104.6h8.6c-0.8,4.8-4.7,10.1-15.6,10.1c-11.8,0-16.3-7.6-16.3-16.1s5.1-16,16.3-16S609,90,609,98.6
	c0,0.9,0,1.8-0.1,2.4h-23c0.5,5.7,3.4,7.6,7.7,7.6C597.4,108.5,599.5,106.8,600.3,104.6 M585.9,95.5h14.6c-0.3-4.6-2.5-6.9-7-6.9
	S586.6,90.3,585.9,95.5"/>
<rect x="614.1" y="71.4" class="st0" width="9" height="42.3"/>
<path class="st0" d="M628.4,98.6c0-8.3,4.7-16,16.7-16s16.7,7.7,16.7,16s-4.7,16.1-16.7,16.1C633.1,114.7,628.4,107,628.4,98.6
	 M645.2,107.7c5.5,0,7.8-2.4,7.8-9.1s-2.3-9.1-7.8-9.1s-7.7,2.4-7.7,9.1S639.7,107.7,645.2,107.7"/>
<path class="st0" d="M698.4,95.2v18.6h-9V96.6c0-4.8-2.1-6.8-5.7-6.8c-4.8,0-7.4,3-7.4,10.2v13.7h-9V83.5h9v5.9
	c1.9-4.1,5.4-6.9,10.9-6.9C695.1,82.5,698.4,87.3,698.4,95.2"/>
<path class="st0" d="M704.2,105.7c0-4.8,2.1-8,9.9-9.3l7.1-1.2c2.8-0.5,3.7-1.3,3.7-3c0-2.1-1.2-3.5-5.3-3.5s-6,1.6-6.2,4.7h-8.8
	c0.2-6.5,5.6-10.9,14.8-10.9s13.7,3.9,13.7,10.3v13.1c0,2.8,0.2,5.3,0.5,7.9h-7.8c-0.3-2-0.5-4-0.5-6.5c-1.4,4.2-5,7.3-11.2,7.3
	C708.1,114.5,704.2,111.1,704.2,105.7 M725,99.4V98c-1.6,1.1-3.1,1.5-5,1.9l-2.5,0.6c-3.2,0.8-4.5,1.9-4.5,4.2
	c0,2.4,1.8,3.6,4.2,3.6C722,108.4,725,105,725,99.4"/>
<path class="st0" d="M0.9,9.8h23.8v61.8c0,20.2,7.7,25.3,23,25.3s23-5.2,23-25.3V9.8h23.6v65c0,27.1-15.5,41.4-46.6,41.4
	S0.9,102,0.9,74.8V9.8z"/>
<path class="st0" d="M317.5,85.5c0,17.5-11.4,28.3-33.6,28.3H227V9.8h58c22.2,0,31.1,11.6,31.1,25.6c0,15.3-9.5,22.2-21.4,24.7
	C307.7,62.2,317.6,68.9,317.5,85.5 M250.8,27.8v24.9h26.4c10.3,0,14.1-5,14.1-12.5c0-8-3.4-12.4-13.3-12.4L250.8,27.8L250.8,27.8z
	 M292.8,82.2c0-8.3-4.2-13.6-15.6-13.6h-26.4v27.1h27.8C289.2,95.6,292.8,89.8,292.8,82.2"/>
<path class="st1" d="M176.4,9.7h-33.5l-41.4,104h23.4c0.3-0.9,0.8-2.2,1.1-3c1.9-4.6,4.8-8.4,8.3-11.7c5.8-5.4,12.8-7.7,20.1-8.3
	c4.9-0.4,10.7-0.5,15.7-0.5h15.3l9.1,23.5h23.4L176.4,9.7z M168.3,72c-0.6,0-1.2,0-1.8,0c-12.3,0.1-22.5,3-32.2,17.3l25.4-63.1
	L178.1,72C177.9,72,168.3,72,168.3,72"/>
</svg>
